<svg xmlns="http://www.w3.org/2000/svg" height="2000" width="2000">
<rect fill="#E57373" fill-opacity="1.0" height="198.71" stroke="#424242" stroke-width="20" width="141.82" x="703.54" y="441.51" />
<rect fill="#E57373" fill-opacity="1.0" height="169.70" stroke="#424242" stroke-width="20" width="254.12" x="550.41" y="304.13" />
<rect fill="#AED581" fill-opacity="1.0" height="319.34" stroke="#424242" stroke-width="20" width="80.00" x="1305.91" y="535.62" />
<rect fill="transparent" fill-opacity="0" height="21.15" stroke="#424242" stroke-width="20" width="22.71" x="1957.29" y="1940.39" />
<rect fill="transparent" fill-opacity="0" height="322.18" stroke="#424242" stroke-width="20" width="397.67" x="982.42" y="529.66" />
<rect fill="transparent" fill-opacity="0" height="369.21" stroke="#424242" stroke-width="20" width="295.96" x="1291.23" y="19" />
<rect fill="transparent" fill-opacity="0" height="349.21" stroke="#424242" stroke-width="20" width="474.62" x="616.64" y="956.48" />
<rect fill="transparent" fill-opacity="0" height="422.97" stroke="#424242" stroke-width="20" width="1817.09" x="20" y="428.44" />
<line stroke="#d84415" stroke-width="20" x1="723.71" x2="738.98" y1="500.98" y2="497.26" />
<circle cx="723.71" cy="500.98" fill="#d84415" r="10" stroke-width="0" />
<line stroke="#d84415" stroke-width="20" x1="829.83" x2="723.71" y1="525.60" y2="500.98" />
<circle cx="829.83" cy="525.60" fill="#d84415" r="10" stroke-width="0" />
<line stroke="#d84415" stroke-width="20" x1="951.89" x2="829.83" y1="549.96" y2="525.60" />
<circle cx="951.89" cy="549.96" fill="#d84415" r="10" stroke-width="0" />
<line stroke="#d84415" stroke-width="20" x1="996.64" x2="951.89" y1="526.70" y2="549.96" />
<circle cx="996.64" cy="526.70" fill="#d84415" r="10" stroke-width="0" />
<line stroke="#d84415" stroke-width="20" x1="1325.26" x2="996.64" y1="556.18" y2="526.70" />
<circle cx="1325.26" cy="556.18" fill="#d84415" r="10" stroke-width="0" />
<line stroke="#d84415" stroke-width="20" x1="1325.26" x2="1325.26" y1="556.18" y2="556.18" />
<circle cx="1325.26" cy="556.18" fill="#d84415" r="10" stroke-width="0" />
<line stroke="#d84415" stroke-width="48" x1="538.98" x2="938.98" y1="311.04" y2="683.48" />
<line stroke="#d84415" stroke-width="48" x1="938.98" x2="538.98" y1="311.04" y2="683.48" />
</svg>